Coordinates
version=1
nRows=40
nColumns=30
inDegrees=yes

Units are S.I. units (second, meters, Newtons, ...)
Angles are in degrees.

endheader
time	floatyaw	floatroll	floatpitch	floatx	floaty	floatz	pro_sup_l	deviation_l	flexion_l	cmc_flexion_l	cmc_abduction_l	mp_flexion_l	ip_flexion_l	2mcp_flexion_l	2mcp_abduction_l	2pm_flexion_l	2md_flexion_l	3mcp_flexion_l	3mcp_abduction_l	3pm_flexion_l	3md_flexion_l	4mcp_flexion_l	4mcp_abduction_l	4pm_flexion_l	4md_flexion_l	5mcp_flexion_l	5mcp_abduction_l	5pm_flexion_l	5md_flexion_l
-1.495000	-160.147433	-5.066637	-73.570646	0.084104	-0.182918	-0.015841	102.122963	3.043851	-1.197488	16.753431	4.212844	-25.619759	-42.189646	31.177287	6.341597	42.044662	28.811295	24.189738	3.925650	44.547320	29.459809	12.726020	-4.351980	52.668940	36.801831	0.719922	-7.288106	62.948148	42.762819
-1.485000	-160.147433	-5.066637	-73.570646	0.084100	-0.182912	-0.015851	102.133375	3.036595	-1.197972	16.737040	4.223994	-25.604556	-42.177782	31.166254	6.350054	42.070338	28.820709	24.188844	3.929559	44.560670	29.463641	12.733576	-4.350743	52.671193	36.800941	0.738500	-7.288661	62.953709	42.764713
-1.475000	-160.147433	-5.066637	-73.570646	0.084093	-0.182904	-0.015860	102.138642	3.027512	-1.194247	16.720806	4.251546	-25.587148	-42.160975	31.153339	6.361383	42.086524	28.823394	24.182686	3.934571	44.578501	29.469533	12.737326	-4.351317	52.680732	36.805603	0.751977	-7.294534	62.978138	42.776873
-1.465000	-160.147433	-5.066637	-73.570646	0.084086	-0.182895	-0.015864	102.139016	3.019292	-1.187496	16.706637	4.292186	-25.573181	-42.145004	31.140738	6.373683	42.091261	28.819630	24.172447	3.939289	44.598984	29.476501	12.736377	-4.354072	52.696917	36.815670	0.757172	-7.303699	63.016716	42.796742
-1.455000	-160.147433	-5.066637	-73.570646	0.084079	-0.182887	-0.015864	102.135107	3.013450	-1.179298	16.695309	4.337866	-25.565562	-42.132310	31.129662	6.385117	42.086052	28.811718	24.159769	3.942580	44.619410	29.483474	12.730076	-4.358489	52.717531	36.829491	0.754017	-7.314265	63.061343	42.819385
-1.445000	-160.147433	-5.066637	-73.570646	0.084074	-0.182883	-0.015861	102.128052	3.009969	-1.170842	16.686815	4.379143	-25.564874	-42.122987	31.119857	6.394429	42.075371	28.802991	24.146338	3.944069	44.636886	29.489306	12.718370	-4.363451	52.739751	36.844427	0.744591	-7.324955	63.104045	42.839793
-1.435000	-160.147433	-5.066637	-73.570646	0.084071	-0.182882	-0.015857	102.119798	3.007818	-1.162425	16.680998	4.409026	-25.570605	-42.116982	31.109953	6.401270	42.064859	28.796531	24.133628	3.944171	44.649389	29.493014	12.702284	-4.367667	52.760906	36.857663	0.731610	-7.334984	63.139295	42.854645
-1.425000	-160.147433	-5.066637	-73.570646	0.084071	-0.182881	-0.015853	102.112900	3.005901	-1.153410	16.677699	4.426145	-25.581563	-42.114906	31.098351	6.406192	42.059090	28.794343	24.122495	3.943627	44.657123	29.494550	12.684085	-4.370072	52.778779	36.867033	0.717541	-7.343638	63.163983	42.862669
-1.415000	-160.147433	-5.066637	-73.570646	0.084073	-0.182877	-0.015851	102.109777	3.003839	-1.142656	16.676268	4.435639	-25.595218	-42.116897	31.084317	6.410243	42.059852	28.797084	24.112754	3.942902	44.663213	29.495485	12.666923	-4.370133	52.791563	36.871452	0.704659	-7.349960	63.175906	42.863793
-1.405000	-160.147433	-5.066637	-73.570646	0.084077	-0.182867	-0.015851	102.111785	3.002188	-1.129210	16.674963	4.446711	-25.607247	-42.121108	31.068880	6.414237	42.065458	28.803879	24.103289	3.941848	44.672538	29.498535	12.654030	-4.368028	52.797737	36.870786	0.695343	-7.352676	63.172675	42.858007
-1.395000	-160.147433	-5.066637	-73.570646	0.084081	-0.182848	-0.015852	102.118651	3.002099	-1.113020	16.670975	4.467680	-25.612595	-42.123801	31.055032	6.418106	42.071319	28.812161	24.092961	3.939842	44.688770	29.505753	12.647760	-4.364600	52.796130	36.865384	0.691765	-7.350398	63.152326	42.844934
-1.385000	-160.147433	-5.066637	-73.570646	0.084086	-0.182823	-0.015852	102.128613	3.004684	-1.095423	16.661472	4.501382	-25.608130	-42.121514	31.046859	6.420826	42.071922	28.818193	24.081862	3.936264	44.711515	29.516648	12.648930	-4.361075	52.786349	36.855808	0.695057	-7.342172	63.115301	42.824432
-1.375000	-160.147433	-5.066637	-73.570646	0.084091	-0.182796	-0.015851	102.139221	3.010403	-1.079191	16.645217	4.543937	-25.595313	-42.113882	31.047847	6.421084	42.063871	28.818817	24.071982	3.931018	44.735978	29.527981	12.656789	-4.358633	52.769513	36.843099	0.704753	-7.328276	63.066304	42.797787
-1.365000	-160.147433	-5.066637	-73.570646	0.084095	-0.182773	-0.015848	102.148317	3.018736	-1.067919	16.623638	4.587695	-25.580797	-42.104822	31.059151	6.418356	42.048624	28.813795	24.066620	3.924781	44.755892	29.535801	12.669548	-4.357993	52.748880	36.829289	0.719120	-7.310801	63.014478	42.768574
-1.355000	-160.147433	-5.066637	-73.570646	0.084098	-0.182759	-0.015845	102.154628	3.028229	-1.064810	16.600403	4.626183	-25.573935	-42.100859	31.078774	6.413657	42.032841	28.806932	24.068617	3.918880	44.767873	29.538367	12.685035	-4.359163	52.729706	36.817521	0.736062	-7.293425	62.971312	42.742435
-1.345000	-160.147433	-5.066637	-73.570646	0.084096	-0.182758	-0.015843	102.157765	3.036958	-1.071245	16.579683	4.657653	-25.582244	-42.107526	31.102169	6.409368	42.025268	28.804562	24.078378	3.914836	44.773961	29.537654	12.701039	-4.361429	52.717869	36.811297	0.753808	-7.280280	62.946997	42.725583
-1.335000	-160.147433	-5.066637	-73.570646	0.084089	-0.182767	-0.015841	102.157790	3.043203	-1.085833	16.564129	4.685201	-25.607297	-42.126011	31.123919	6.408117	42.031629	28.811913	24.092922	3.913773	44.780256	29.538189	12.715255	-4.363609	52.717606	36.813114	0.770852	-7.274455	62.946907	42.722676
-1.325000	-160.147433	-5.066637	-73.570646	0.084077	-0.182784	-0.015840	102.154725	3.046017	-1.104537	16.553673	4.713816	-25.643345	-42.151866	31.139655	6.411359	42.050861	28.829795	24.106828	3.915958	44.792498	29.543958	12.725169	-4.364528	52.729576	36.823290	0.785383	-7.276944	62.969920	42.735123
-1.315000	-160.147433	-5.066637	-73.570646	0.084062	-0.182802	-0.015840	102.148341	3.045400	-1.121998	16.545584	4.746328	-25.679479	-42.176363	31.147442	6.418464	42.075284	28.853847	24.114710	3.920700	44.811634	29.555545	12.728308	-4.363557	52.750552	36.839782	0.794952	-7.286503	63.009264	42.760619
-1.305000	-160.147433	-5.066637	-73.570646	0.084049	-0.182817	-0.015840	102.138343	3.042015	-1.133517	16.535674	4.780639	-25.704268	-42.189943	31.148225	6.426890	42.094470	28.876740	24.113808	3.926658	44.832520	29.569434	12.722940	-4.360952	52.775130	36.859118	0.797013	-7.300333	63.055262	42.793955
-1.295000	-160.147433	-5.066637	-73.570646	0.084039	-0.182825	-0.015839	102.124868	3.036656	-1.136742	16.520143	4.810212	-25.710526	-42.186172	31.145154	6.433410	42.100421	28.891833	24.105098	3.932408	44.846798	29.580008	12.708909	-4.357767	52.798517	36.877859	0.790289	-7.315201	63.098642	42.828630
-1.285000	-160.147433	-5.066637	-73.570646	0.084036	-0.182829	-0.015839	102.108877	3.029821	-1.132269	16.497404	4.827910	-25.697990	-42.164335	31.141938	6.435781	42.091306	28.896241	24.092319	3.936979	44.848228	29.583025	12.688019	-4.355341	52.818734	36.893717	0.776003	-7.328495	63.133247	42.858723
-1.275000	-160.147433	-5.066637	-73.570646	0.084038	-0.182828	-0.015840	102.092070	3.021666	-1.122938	16.469148	4.830799	-25.672986	-42.129630	31.140918	6.433858	42.072004	28.891802	24.079743	3.940063	44.836880	29.578277	12.663555	-4.354630	52.836936	36.905816	0.757683	-7.338798	63.157428	42.880588
-1.265000	-160.147433	-5.066637	-73.570646	0.084043	-0.182826	-0.015843	102.076332	3.012398	-1.112296	16.440036	4.822307	-25.645669	-42.091202	31.141872	6.429478	42.051294	28.883564	24.070210	3.941841	44.819199	29.569577	12.639032	-4.355774	52.855747	36.914161	0.739230	-7.345802	63.173810	42.893823
-1.255000	-160.147433	-5.066637	-73.570646	0.084047	-0.182824	-0.015848	102.063199	3.002817	-1.103050	16.415862	4.809959	-25.626112	-42.058941	31.142236	6.425276	42.037269	28.876767	24.064492	3.942592	44.803925	29.562142	12.616866	-4.358094	52.876717	36.918870	0.722607	-7.349739	63.187448	42.900977
-1.245000	-160.147433	-5.066637	-73.570646	0.084049	-0.182824	-0.015852	102.053689	2.994509	-1.096307	16.400766	4.800310	-25.620635	-42.040067	31.138688	6.423304	42.033582	28.874159	24.061924	3.942439	44.796931	29.559327	12.597887	-4.360433	52.898524	36.919769	0.707154	-7.350784	63.202894	42.905927
-1.235000	-160.147433	-5.066637	-73.570646	0.084048	-0.182824	-0.015855	102.048415	2.989315	-1.091812	16.394783	4.794896	-25.629585	-42.036441	31.129297	6.424275	42.038536	28.875180	24.061450	3.941402	44.798601	29.561049	12.582017	-4.361648	52.917024	36.916603	0.691261	-7.348840	63.221294	42.911596
-1.225000	-160.147433	-5.066637	-73.570646	0.084044	-0.182824	-0.015857	102.047717	2.988367	-1.088723	16.393144	4.790246	-25.647389	-42.043644	31.115070	6.427658	42.047141	28.877248	24.062225	3.939618	44.805153	29.564802	12.569509	-4.361028	52.927090	36.909611	0.675195	-7.343885	63.238959	42.918217
-1.215000	-160.147433	-5.066637	-73.570646	0.084040	-0.182822	-0.015858	102.051631	2.991399	-1.086251	16.388081	4.781961	-25.665036	-42.052635	31.099976	6.432265	42.054305	28.877880	24.063560	3.937442	44.812267	29.568124	12.561624	-4.358520	52.925117	36.899963	0.662695	-7.336563	63.248419	42.923100
-1.205000	-160.147433	-5.066637	-73.570646	0.084034	-0.182817	-0.015860	102.059715	2.996861	-1.083820	16.372497	4.769803	-25.674219	-42.053878	31.089328	6.436849	42.056992	28.876044	24.064612	3.935302	44.818057	29.570443	12.560071	-4.354685	52.910790	36.889677	0.659689	-7.328471	63.241826	42.922113
-1.195000	-160.147433	-5.066637	-73.570646	0.084028	-0.182809	-0.015863	102.070829	3.002697	-1.081012	16.343625	4.759889	-25.671467	-42.042322	31.087345	6.440496	42.054437	28.872060	24.064282	3.933441	44.823591	29.573118	12.565598	-4.350457	52.887378	36.881074	0.670623	-7.321753	63.215167	42.912113
-1.185000	-160.147433	-5.066637	-73.570646	0.084023	-0.182797	-0.015869	102.083018	3.007141	-1.077673	16.304472	4.762040	-25.660133	-42.020472	31.095282	6.442861	42.047234	28.866738	24.061509	3.931820	44.831476	29.578148	12.576831	-4.346832	52.860794	36.876223	0.694882	-7.318174	63.170997	42.893031
-1.175000	-160.147433	-5.066637	-73.570646	0.084016	-0.182784	-0.015877	102.093705	3.009071	-1.074211	16.262019	4.783813	-25.648822	-41.997340	31.111079	6.444334	42.036706	28.860836	24.055736	3.930297	44.844177	29.586896	12.590273	-4.344620	52.838144	36.876702	0.726034	-7.318290	63.118113	42.868447
-1.165000	-160.147433	-5.066637	-73.570646	0.084009	-0.182773	-0.015886	102.100339	3.007933	-1.071653	16.223259	4.825100	-25.646793	-41.983449	31.130388	6.446030	42.025136	28.855342	24.047152	3.928947	44.863199	29.599688	12.601447	-4.344258	52.826102	36.883532	0.754739	-7.321391	63.068340	42.844326
-1.155000	-160.147433	-5.066637	-73.570646	0.084000	-0.182768	-0.015896	102.101304	3.003597	-1.071155	16.191696	4.876844	-25.658951	-41.984954	31.148028	6.449442	42.016286	28.852070	24.036449	3.928232	44.889075	29.616093	12.606537	-4.345677	52.829133	36.896882	0.773426	-7.326269	63.032295	42.826653
-1.145000	-160.147433	-5.066637	-73.570646	0.083988	-0.182770	-0.015907	102.096592	2.996393	-1.073175	16.166592	4.924750	-25.683528	-42.000902	31.159204	6.455687	42.015114	28.853631	24.024270	3.928798	44.921460	29.635239	12.603767	-4.348295	52.847820	36.915489	0.779598	-7.332177	63.016266	42.819209
-1.135000	-160.147433	-5.066637	-73.570646	0.083973	-0.182776	-0.015918	102.087898	2.987288	-1.076871	16.145162	4.955663	-25.713685	-42.025347	31.160585	6.464670	42.026085	28.862268	24.010922	3.931045	44.958878	29.655693	12.594070	-4.351230	52.878086	36.936296	0.775802	-7.339059	63.021226	42.822477
-1.125000	-160.147433	-5.066637	-73.570646	0.083957	-0.182784	-0.015928	102.078142	2.977934	-1.080151	16.125716	4.962925	-25.741512	-42.052211	31.151512	6.474740	42.050552	28.877987	23.996657	3.934761	44.998265	29.675147	12.580778	-4.353626	52.912102	36.954907	0.766893	-7.346828	63.043585	42.833926
-1.115000	-160.147433	-5.066637	-73.570646	0.083941	-0.182788	-0.015935	102.070594	2.970332	-1.080406	16.109218	4.948171	-25.761643	-42.078845	31.135013	6.483238	42.084667	28.897272	23.982221	3.939116	45.035002	29.690506	12.568313	-4.354890	52.940930	36.967004	0.756842	-7.354413	63.076733	42.849307
-1.105000	-160.147433	-5.066637	-73.570646	0.083927	-0.182786	-0.015938	102.067739	2.966071	-1.075672	16.098287	4.919475	-25.772579	-42.105828	31.117633	6.487754	42.119618	28.913691	23.969094	3.943002	45.064072	29.698813	12.560337	-4.354759	52.957897	36.970166	0.747183	-7.359620	63.112779	42.864305
